<svg width="88" height="100" viewBox="0 0 88 100" fill="none" xmlns="http://www.w3.org/2000/svg">
<path d="M84.6064 21.3652H69.8894C66.4788 9.52375 56.1814 0.916626 44.001 0.916626C31.8205 0.916626 21.5204 9.52415 18.1126 21.3652H3.39555C2.05589 21.3652 0.966553 22.4508 0.966553 23.7904V97.0347C0.966553 98.3782 2.05215 99.4637 3.39555 99.4637H84.6045C85.948 99.4637 87.0335 98.3742 87.0335 97.0347V23.7904C87.0335 22.4507 85.944 21.3652 84.6045 21.3652H84.6064ZM44.002 5.00831C54.042 5.00831 62.5988 11.8181 65.8598 21.3613H22.1452C25.4057 11.8183 33.958 5.00831 44.002 5.00831Z" fill="#606673"/>
<g clip-path="url(#clip0_33_1733)">
<path d="M81.1711 76.5898C80.989 83.7431 77.39 90.3517 71.4553 94.3965H46.4993C40.5645 90.3518 36.9666 83.743 36.7844 76.5898H81.1711ZM81.4817 75.9531H37.134V73.9941H81.4817V75.9531Z" fill="#1DB4F3"/>
</g>
<g clip-path="url(#clip1_33_1733)">
<path d="M9.41748 74.9475H31.0929L28.3794 93.3853H12.131L9.41748 74.9475Z" fill="#1DB4F3"/>
</g>
<g clip-path="url(#clip2_33_1733)">
<path d="M9.41748 52.9661H31.0929L28.3794 71.4038H12.131L9.41748 52.9661Z" fill="#1DB4F3"/>
</g>
<g clip-path="url(#clip3_33_1733)">
<path d="M49.0505 52.9661H70.726L68.0125 71.4038H51.764L49.0505 52.9661Z" fill="#EA661E"/>
</g>
<defs>
<clipPath id="clip0_33_1733">
<rect width="44.532" height="21.5238" fill="white" transform="translate(37 73.5)"/>
</clipPath>
<clipPath id="clip1_33_1733">
<rect width="23" height="19" fill="white" transform="translate(8 74.6953)"/>
</clipPath>
<clipPath id="clip2_33_1733">
<rect width="23" height="19" fill="white" transform="translate(8 52.7139)"/>
</clipPath>
<clipPath id="clip3_33_1733">
<rect width="23" height="19" fill="white" transform="translate(47.6331 52.7139)"/>
</clipPath>
</defs>
</svg>
