<svg width="88" height="100" viewBox="0 0 88 100" fill="none" xmlns="http://www.w3.org/2000/svg">
<path d="M84.6064 21.3652H69.8894C66.4788 9.52375 56.1814 0.916626 44.001 0.916626C31.8205 0.916626 21.5204 9.52415 18.1126 21.3652H3.39555C2.05589 21.3652 0.966553 22.4508 0.966553 23.7904V97.0347C0.966553 98.3782 2.05215 99.4637 3.39555 99.4637H84.6045C85.948 99.4637 87.0335 98.3742 87.0335 97.0347V23.7904C87.0335 22.4507 85.944 21.3652 84.6045 21.3652H84.6064ZM44.002 5.00831C54.042 5.00831 62.5988 11.8181 65.8598 21.3613H22.1452C25.4057 11.8183 33.958 5.00831 44.002 5.00831Z" fill="#606673"/>
<g clip-path="url(#clip0_33_1731)">
<path d="M81.1711 76.5898C80.9889 83.7431 77.39 90.3517 71.4553 94.3965H46.4992C40.5644 90.3518 36.9666 83.743 36.7844 76.5898H81.1711ZM81.4816 75.9531H37.134V73.9941H81.4816V75.9531Z" fill="#1DB4F3"/>
</g>
<g clip-path="url(#clip1_33_1731)">
<path d="M9.41742 52.7522H31.0929L28.3794 71.19H12.1309L9.41742 52.7522Z" fill="#1DB4F3"/>
</g>
<g clip-path="url(#clip2_33_1731)">
<path d="M71.6933 60.4278V61.1675H46.8384V60.4278C46.8384 56.4014 50.2015 53.1249 54.3374 53.1249H64.194C68.3289 53.1249 71.6933 56.4017 71.6933 60.4278Z" fill="#EA661E"/>
<path d="M71.6933 66.3704V67.8758C71.6933 69.8722 70.0214 71.5 67.9737 71.5H50.5596C48.5106 71.5 46.84 69.8721 46.84 67.8758V66.3704H71.6933Z" fill="#EA661E"/>
<path d="M71.0751 62.6917H47.4568C46.8018 62.6917 46.266 63.2136 46.266 63.8556C46.266 64.4939 46.8017 65.0159 47.4568 65.0159H71.0751C71.7302 65.0159 72.266 64.494 72.266 63.8556C72.266 63.2137 71.7302 62.6917 71.0751 62.6917Z" fill="black"/>
<path d="M72.266 63.8558C72.266 64.494 71.7302 65.0161 71.0751 65.0161H47.4568C46.8018 65.0161 46.266 64.4941 46.266 63.8558C46.266 63.2138 46.8017 62.6918 47.4568 62.6918H71.0751C71.7302 62.6918 72.266 63.2138 72.266 63.8558Z" fill="#EA661E"/>
</g>
<g clip-path="url(#clip3_33_1731)">
<path d="M9.41742 74.9475H31.0929L28.3794 93.3853H12.1309L9.41742 74.9475Z" fill="#EA661E"/>
</g>
<defs>
<clipPath id="clip0_33_1731">
<rect width="44.532" height="21.5238" fill="white" transform="translate(37 73.5)"/>
</clipPath>
<clipPath id="clip1_33_1731">
<rect width="23" height="19" fill="white" transform="translate(8 52.5)"/>
</clipPath>
<clipPath id="clip2_33_1731">
<rect width="26" height="19" fill="white" transform="translate(46.266 52.5)"/>
</clipPath>
<clipPath id="clip3_33_1731">
<rect width="23" height="19" fill="white" transform="translate(8 74.6953)"/>
</clipPath>
</defs>
</svg>
