<svg width="26" height="19" viewBox="0 0 26 19" fill="none" xmlns="http://www.w3.org/2000/svg">
<g clip-path="url(#clip0_53_333)">
<path d="M25.4273 7.92782V8.66752H0.572388V7.92782C0.572388 3.90142 3.93547 0.624882 8.07141 0.624882H17.928C22.0629 0.624882 25.4273 3.90174 25.4273 7.92782Z" fill="#EA661E"/>
<path d="M25.4273 13.8704V15.3757C25.4273 17.3722 23.7553 19 21.7077 19H4.29359C2.24457 19 0.573975 17.3721 0.573975 15.3757V13.8704H25.4273Z" fill="#EA661E"/>
<path d="M24.8091 10.1917H1.19083C0.53576 10.1917 0 10.7137 0 11.3557C0 11.994 0.535728 12.516 1.19083 12.516H24.8091C25.4642 12.516 26 11.994 26 11.3557C26 10.7137 25.4642 10.1917 24.8091 10.1917Z" fill="black"/>
<path d="M26 11.3557C26 11.994 25.4642 12.516 24.8091 12.516H1.19083C0.535761 12.516 0 11.994 0 11.3557C0 10.7138 0.535728 10.1917 1.19083 10.1917H24.8091C25.4642 10.1917 26 10.7137 26 11.3557Z" fill="#EA661E"/>
</g>
<defs>
<clipPath id="clip0_53_333">
<rect width="26" height="19" fill="white"/>
</clipPath>
</defs>
</svg>
