<svg width="71" height="81" viewBox="0 0 71 81" fill="none" xmlns="http://www.w3.org/2000/svg">
<g id="Bag Icon">
<path id="Vector" d="M68.46 17.0151H56.5139C53.7454 7.4032 45.3869 0.416626 35.4997 0.416626C25.6126 0.416626 17.2518 7.40352 14.4856 17.0151H2.53952C1.4521 17.0151 0.567856 17.8963 0.567856 18.9837V78.4375C0.567856 79.5281 1.44906 80.4092 2.53952 80.4092H68.4584C69.5489 80.4092 70.43 79.5249 70.43 78.4375V18.9837C70.43 17.8963 69.5457 17.0151 68.4584 17.0151H68.46ZM35.5005 3.73793C43.6502 3.73793 50.596 9.26559 53.2429 17.0119H17.7589C20.4056 9.26575 27.3477 3.73793 35.5005 3.73793Z" fill="#6F7582"/>
</g>
</svg>
