<svg width="225" height="238" viewBox="0 0 225 238" fill="none" xmlns="http://www.w3.org/2000/svg">
<g id="people">
<rect x="0.5" y="0.5" width="224" height="236.498" rx="4.5" stroke="#8A38F5" stroke-dasharray="10 5"/>
<g id="Property 1=work3">
<path id="Vector" d="M63.1698 221.467H35.8295C29.3474 221.467 24.0909 216.203 24.0909 209.711V182.356C24.0909 175.864 29.3474 170.6 35.8295 170.6H63.1512C69.6302 170.6 74.8866 175.858 74.8897 182.349L74.9083 209.705C74.9114 216.2 69.655 221.467 63.1698 221.467Z" fill="#F96F4D"/>
<path id="Vector_2" d="M40.5412 194.486C41.9962 193.883 42.6871 192.212 42.0844 190.755C41.4817 189.298 39.8136 188.606 38.3586 189.21C36.9036 189.813 36.2126 191.484 36.8153 192.941C37.418 194.398 39.0861 195.09 40.5412 194.486Z" fill="#333333"/>
<path id="Vector_3" d="M60.5149 194.488C61.9699 193.885 62.6609 192.214 62.0582 190.757C61.4555 189.3 59.7874 188.608 58.3324 189.212C56.8773 189.815 56.1864 191.486 56.7891 192.943C57.3918 194.4 59.0599 195.092 60.5149 194.488Z" fill="#333333"/>
<path id="Vector_4" d="M39.9595 202.642C46.2338 200.479 53.5288 200.609 59.7906 202.775C62.062 203.562 64.2341 204.665 66.1362 206.135C66.7289 206.594 67.818 207.558 68.5162 206.66C68.9165 206.147 68.5814 205.289 68.3052 204.798C67.6381 203.602 66.462 202.76 65.3853 201.964C63.9735 200.917 62.4033 200.087 60.7836 199.416C58.025 198.279 55.0586 197.685 52.0891 197.486C50.9689 197.412 49.8456 197.39 48.7254 197.424C48.6944 197.424 48.6603 197.424 48.6292 197.424C47.0343 197.477 45.4425 197.642 43.8693 197.918C40.8749 198.443 37.955 199.472 35.3051 200.97C35.0165 201.135 34.7279 201.302 34.4456 201.473C33.496 202.054 32.5807 202.639 32.0345 203.652C31.836 204.018 31.7243 204.456 31.8422 204.857C32.0408 205.541 32.7762 205.79 33.4154 205.653C34.4238 205.438 35.2399 204.854 36.1212 204.36C37.0521 203.838 38.0202 203.378 39.01 202.984C39.3234 202.859 39.6399 202.741 39.9564 202.632L39.9595 202.642Z" fill="#333333"/>
<path id="Vector_5" d="M44.555 187.607C44.7722 187.552 44.9088 187.337 44.8715 187.11C44.766 186.501 44.5395 185.911 44.2044 185.382C43.8476 184.823 36.447 188.248 35.696 188.608C33.8932 189.475 31.9135 190.426 30.151 191.573C29.7011 191.865 30.0797 192.58 30.5792 192.381C32.4534 191.638 34.3059 190.755 36.1832 190.112C38.9355 189.167 41.7282 188.331 44.555 187.607Z" fill="#333333"/>
<path id="Vector_6" d="M54.7576 187.284C54.5435 187.213 54.4194 186.992 54.4752 186.768C54.618 186.169 54.8848 185.591 55.2541 185.09C55.6482 184.556 62.8067 188.462 63.5328 188.872C65.2736 189.857 67.185 190.936 68.8699 192.194C69.3013 192.514 68.8761 193.201 68.389 192.971C66.5675 192.107 64.7771 191.103 62.9464 190.336C60.2623 189.211 57.5286 188.192 54.7576 187.284Z" fill="#333333"/>
</g>
<g id="Property 1=work2">
<path id="Vector_7" d="M61.7921 98.6354H34.4797C27.9967 98.6354 22.7412 103.899 22.7412 110.391V137.744C22.7412 144.236 27.9967 149.5 34.4797 149.5H61.7921C68.2751 149.5 73.5306 144.236 73.5306 137.744V110.391C73.5306 103.899 68.2751 98.6354 61.7921 98.6354Z" fill="#F99E4D"/>
<path id="Vector_8" d="M39.7455 133.412C41.281 133.412 42.5257 131.311 42.5257 128.72C42.5257 126.128 41.281 124.027 39.7455 124.027C38.21 124.027 36.9652 126.128 36.9652 128.72C36.9652 131.311 38.21 133.412 39.7455 133.412Z" fill="white"/>
<path id="Vector_9" d="M58.1182 133.412C59.6537 133.412 60.8985 131.311 60.8985 128.72C60.8985 126.128 59.6537 124.027 58.1182 124.027C56.5827 124.027 55.338 126.128 55.338 128.72C55.338 131.311 56.5827 133.412 58.1182 133.412Z" fill="white"/>
<path id="Vector_10" d="M39.7454 132.166C40.8731 132.166 41.7872 130.623 41.7872 128.72C41.7872 126.816 40.8731 125.273 39.7454 125.273C38.6178 125.273 37.7037 126.816 37.7037 128.72C37.7037 130.623 38.6178 132.166 39.7454 132.166Z" fill="#333333"/>
<path id="Vector_11" d="M58.1399 132.166C59.2675 132.166 60.1816 130.623 60.1816 128.72C60.1816 126.816 59.2675 125.273 58.1399 125.273C57.0122 125.273 56.0981 126.816 56.0981 128.72C56.0981 130.623 57.0122 132.166 58.1399 132.166Z" fill="#333333"/>
<path id="Vector_12" d="M66.9492 118.396C66.9492 120.671 66.04 121.317 64.7895 121.317C63.539 121.317 62.4189 120.671 62.4189 118.396C62.4189 116.122 63.3497 111.423 64.6002 111.423C65.8507 111.423 66.9492 116.122 66.9492 118.396Z" fill="white"/>
<path id="Vector_13" d="M52.6011 113.499C52.6011 115.267 51.8936 115.77 50.9224 115.77C49.9512 115.77 49.0792 115.267 49.0792 113.499C49.0792 111.731 49.8022 108.076 50.7765 108.076C51.7509 108.076 52.6042 111.731 52.6042 113.499H52.6011Z" fill="white"/>
<path id="Vector_14" d="M36.1119 118.505C36.1119 120.27 35.4075 120.77 34.4363 120.77C33.465 120.77 32.5962 120.27 32.5962 118.505C32.5962 116.74 33.3192 113.095 34.2904 113.095C35.2616 113.095 36.1119 116.743 36.1119 118.505Z" fill="white"/>
<path id="Vector_15" d="M43.8693 115.997C43.8693 117.209 43.3853 117.554 42.7181 117.554C42.051 117.554 41.4521 117.209 41.4521 115.997C41.4521 114.785 41.9486 112.278 42.6157 112.278C43.2829 112.278 43.8693 114.785 43.8693 115.997Z" fill="white"/>
<path id="Vector_16" d="M57.3331 118.207C57.3331 119.419 56.849 119.764 56.1819 119.764C55.5148 119.764 54.9159 119.419 54.9159 118.207C54.9159 116.995 55.4124 114.487 56.0795 114.487C56.7466 114.487 57.3331 116.995 57.3331 118.207Z" fill="white"/>
<path id="Vector_17" d="M27.4328 140.062C27.318 140.062 27.2032 140.037 27.0946 139.981C26.7222 139.795 26.5702 139.341 26.7564 138.968L28.7702 134.935C28.9564 134.562 29.4094 134.409 29.7818 134.596C30.1541 134.782 30.3062 135.236 30.12 135.609L28.1061 139.643C27.9727 139.907 27.7059 140.062 27.4297 140.062H27.4328Z" fill="#333333"/>
<path id="Vector_18" d="M30.7064 140.062C30.5916 140.062 30.4768 140.037 30.3682 139.981C29.9959 139.795 29.8438 139.341 30.03 138.968L32.0438 134.935C32.23 134.562 32.6861 134.409 33.0554 134.596C33.4277 134.782 33.5798 135.236 33.3936 135.609L31.3798 139.643C31.2464 139.907 30.9795 140.062 30.7033 140.062H30.7064Z" fill="#333333"/>
<path id="Vector_19" d="M33.977 140.062C33.8622 140.062 33.7474 140.037 33.6388 139.981C33.2664 139.795 33.1144 139.341 33.3006 138.968L35.3144 134.935C35.5006 134.562 35.9567 134.409 36.326 134.596C36.6983 134.782 36.8504 135.236 36.6642 135.609L34.6504 139.643C34.5169 139.907 34.2501 140.062 33.9739 140.062H33.977Z" fill="#333333"/>
<path id="Vector_20" d="M60.2778 140.062C60.163 140.062 60.0481 140.037 59.9395 139.981C59.5672 139.795 59.4151 139.341 59.6013 138.968L61.6151 134.935C61.8013 134.562 62.2544 134.409 62.6298 134.596C63.0022 134.782 63.1542 135.236 62.968 135.609L60.9542 139.643C60.8208 139.907 60.5539 140.062 60.2778 140.062Z" fill="#333333"/>
<path id="Vector_21" d="M63.5514 140.062C63.4366 140.062 63.3218 140.037 63.2132 139.981C62.8408 139.795 62.6888 139.341 62.875 138.968L64.8888 134.935C65.075 134.562 65.528 134.409 65.9004 134.596C66.2727 134.782 66.4248 135.236 66.2386 135.609L64.2247 139.643C64.0913 139.907 63.8245 140.062 63.5483 140.062H63.5514Z" fill="#333333"/>
<path id="Vector_22" d="M66.822 140.062C66.7072 140.062 66.5924 140.037 66.4838 139.981C66.1114 139.795 65.9594 139.341 66.1455 138.968L68.1594 134.935C68.3455 134.562 68.7986 134.409 69.1709 134.596C69.5433 134.782 69.6953 135.236 69.5092 135.609L67.4953 139.643C67.3619 139.907 67.095 140.062 66.8189 140.062H66.822Z" fill="#333333"/>
</g>
<g id="Property 1=work1">
<path id="Vector_23" d="M61.7921 21.2456H34.4797C27.9967 21.2456 22.7412 26.5089 22.7412 33.0014V60.354C22.7412 66.8466 27.9967 72.1098 34.4797 72.1098H61.7921C68.2751 72.1098 73.5306 66.8466 73.5306 60.354V33.0014C73.5306 26.5089 68.2751 21.2456 61.7921 21.2456Z" fill="#FEC343"/>
<path id="Vector_24" d="M37.1204 45.1115C38.3372 45.1115 39.3235 43.4461 39.3235 41.3918C39.3235 39.3374 38.3372 37.6721 37.1204 37.6721C35.9037 37.6721 34.9173 39.3374 34.9173 41.3918C34.9173 43.4461 35.9037 45.1115 37.1204 45.1115Z" fill="#333333"/>
<path id="Vector_25" d="M59.1515 45.1115C60.3682 45.1115 61.3546 43.4461 61.3546 41.3918C61.3546 39.3374 60.3682 37.6721 59.1515 37.6721C57.9347 37.6721 56.9484 39.3374 56.9484 41.3918C56.9484 43.4461 57.9347 45.1115 59.1515 45.1115Z" fill="#333333"/>
<path id="Vector_26" d="M55.6979 49.8288C57.6931 49.8288 58.987 51.9295 58.0965 53.7194C56.4209 57.0911 52.6383 59.4435 48.2352 59.4435C43.8321 59.4435 40.0496 57.0911 38.374 53.7194C37.4865 51.9295 38.7804 49.8288 40.7726 49.8288H55.6917H55.6979Z" fill="#333333"/>
</g>
<g id="Property 1=customer 3">
<path id="Vector_27" d="M179.408 170.997H152.095C145.612 170.997 140.357 176.261 140.357 182.753V210.106C140.357 216.598 145.612 221.861 152.095 221.861H179.408C185.891 221.861 191.146 216.598 191.146 210.106V182.753C191.146 176.261 185.891 170.997 179.408 170.997Z" fill="#F96F4D"/>
<path id="Vector_28" d="M156.988 193.021C158.422 192.987 159.557 191.796 159.524 190.36C159.49 188.924 158.3 187.787 156.866 187.82C155.432 187.854 154.297 189.046 154.331 190.482C154.364 191.918 155.554 193.055 156.988 193.021Z" fill="#333333"/>
<path id="Vector_29" d="M172.519 189.969C172.479 188.533 173.608 187.334 175.042 187.293C176.475 187.253 177.673 188.384 177.713 189.82C177.754 191.255 176.624 192.455 175.191 192.495C173.757 192.536 172.559 191.404 172.519 189.969Z" fill="#333333"/>
<path id="Vector_30" d="M169.345 198.005C169.704 197.741 170.074 197.52 170.446 197.365C172.19 196.638 173.102 198.57 173.866 199.472C174.43 200.134 174.973 200.969 174.641 201.948C174.008 203.8 171.495 205.388 170.024 206.681C168.532 207.989 167.055 209.316 165.596 210.659C164.513 211.656 163.3 213.076 161.826 213.076C161.196 213.076 160.774 212.635 160.417 212.213C159.79 211.473 159.182 210.715 158.596 209.938C158.022 209.176 158.168 208.303 158.925 207.337C159.421 206.703 160.067 206.187 160.7 205.674C162.509 204.204 164.28 202.688 166.012 201.128C167.008 200.23 168.144 198.884 169.351 198.005H169.345Z" fill="#333333"/>
<path id="Vector_31" d="M163.66 198.008C163.3 197.744 162.931 197.523 162.558 197.368C160.814 196.638 159.902 198.57 159.136 199.472C158.571 200.134 158.028 200.969 158.36 201.948C158.993 203.8 161.503 205.392 162.977 206.681C164.47 207.989 165.947 209.316 167.405 210.662C168.488 211.659 169.698 213.08 171.175 213.083C171.805 213.083 172.227 212.641 172.587 212.219C173.214 211.479 173.822 210.721 174.412 209.944C174.986 209.183 174.84 208.309 174.083 207.343C173.586 206.709 172.941 206.193 172.308 205.677C170.499 204.208 168.727 202.688 166.996 201.128C166 200.23 164.864 198.884 163.657 198.005L163.66 198.008Z" fill="#333333"/>
<path id="Vector_32" d="M159.781 186.507C159.967 186.597 160.188 186.526 160.293 186.345C160.576 185.861 160.762 185.311 160.836 184.748C160.914 184.148 153.746 182.209 153.011 182.02C151.245 181.572 149.309 181.075 147.41 180.845C146.926 180.786 146.774 181.504 147.239 181.659C148.98 182.237 150.789 182.706 152.477 183.353C154.95 184.304 157.389 185.354 159.787 186.504L159.781 186.507Z" fill="#333333"/>
<path id="Vector_33" d="M172.047 186.153C171.867 186.252 171.644 186.196 171.529 186.019C171.219 185.55 171.002 185.015 170.896 184.456C170.784 183.862 177.828 181.51 178.554 181.28C180.292 180.73 182.197 180.124 184.078 179.782C184.558 179.695 184.751 180.404 184.295 180.587C182.588 181.265 180.81 181.836 179.162 182.582C176.748 183.676 174.371 184.866 172.047 186.15V186.153Z" fill="#333333"/>
</g>
<g id="Property 1=customer2">
<path id="Vector_34" d="M173.015 95.3383H144.827C138.586 95.3383 133.526 100.405 133.526 106.656V134.885C133.526 141.135 138.586 146.203 144.827 146.203H173.015C179.256 146.203 184.316 141.135 184.316 134.885V106.656C184.316 100.405 179.256 95.3383 173.015 95.3383Z" fill="#F99E4D"/>
<path id="Vector_35" d="M148.932 120.022C150.507 120.022 151.784 118.743 151.784 117.166C151.784 115.588 150.507 114.31 148.932 114.31C147.357 114.31 146.081 115.588 146.081 117.166C146.081 118.743 147.357 120.022 148.932 120.022Z" fill="#333333"/>
<path id="Vector_36" d="M168.909 120.022C170.484 120.022 171.761 118.743 171.761 117.166C171.761 115.588 170.484 114.31 168.909 114.31C167.334 114.31 166.058 115.588 166.058 117.166C166.058 118.743 167.334 120.022 168.909 120.022Z" fill="#333333"/>
<path id="Vector_37" d="M175.019 127.234H142.823C142.447 127.234 142.143 126.93 142.143 126.554C142.143 126.178 142.447 125.873 142.823 125.873H175.019C175.394 125.873 175.699 126.178 175.699 126.554C175.699 126.93 175.394 127.234 175.019 127.234Z" fill="#333333"/>
</g>
<g id="Property 1=customer1">
<path id="Vector_38" d="M172.579 19.6794H145.266C138.783 19.6794 133.528 24.9427 133.528 31.4352V58.7878C133.528 65.2804 138.783 70.5437 145.266 70.5437H172.579C179.062 70.5437 184.317 65.2804 184.317 58.7878V31.4352C184.317 24.9427 179.062 19.6794 172.579 19.6794Z" fill="#FEC343"/>
<path id="Vector_39" d="M141.276 39.8971C141.257 39.8536 141.245 39.8101 141.239 39.7666C140.751 37.0288 145.968 36.3296 147.646 36.8579C148.509 37.1283 149.371 37.6006 150.06 38.1848C150.324 38.4117 152.031 40.5466 150.805 40.5745C150.625 40.5776 150.458 40.4751 150.312 40.3694C149.192 39.577 148.596 38.4024 147.184 38.0667C145.636 37.697 143.938 38.1973 142.855 39.3719C142.514 39.7417 141.651 40.7983 141.282 39.8971H141.276Z" fill="#333333"/>
<path id="Vector_40" d="M175.719 39.8971C175.737 39.8536 175.75 39.8101 175.756 39.7666C176.243 37.0288 171.027 36.3296 169.348 36.8579C168.486 37.1283 167.623 37.6006 166.934 38.1848C166.671 38.4117 164.964 40.5466 166.19 40.5745C166.37 40.5776 166.537 40.4751 166.683 40.3694C167.803 39.577 168.399 38.4024 169.811 38.0667C171.359 37.697 173.056 38.1973 174.139 39.3719C174.481 39.7417 175.343 40.7983 175.713 39.8971H175.719Z" fill="#333333"/>
<path id="Vector_41" d="M148.633 49.4435C154.907 51.6063 162.202 51.4758 168.464 49.3098C170.735 48.5236 172.908 47.4204 174.81 45.9506C175.402 45.4907 176.491 44.5273 177.19 45.4254C177.59 45.9382 177.255 46.7958 176.979 47.2868C176.311 48.4832 175.135 49.3254 174.059 50.1209C172.647 51.1681 171.077 51.9979 169.457 52.6691C166.698 53.8064 163.732 54.4 160.762 54.5989C159.642 54.6735 158.519 54.6952 157.399 54.661C157.368 54.661 157.334 54.661 157.303 54.661C155.708 54.6082 154.116 54.4435 152.543 54.1669C149.548 53.6417 146.628 52.6132 143.979 51.1153C143.69 50.9506 143.401 50.7828 143.119 50.6119C142.169 50.0308 141.254 49.4466 140.708 48.4335C140.509 48.0668 140.398 47.6287 140.516 47.2278C140.714 46.5441 141.45 46.2955 142.089 46.4322C143.097 46.6467 143.913 47.2309 144.795 47.725C145.725 48.2471 146.694 48.707 147.683 49.1016C147.997 49.2259 148.313 49.344 148.63 49.4528L148.633 49.4435Z" fill="#333333"/>
</g>
</g>
</svg>
