<svg width="60" height="60" viewBox="0 0 60 60" fill="none" xmlns="http://www.w3.org/2000/svg">
<g id="Property 1=bag">
<path id="Vector" d="M54.7218 12.45H45.7614C43.6848 5.2404 37.4154 0 29.9994 0C22.5834 0 16.3122 5.24064 14.2374 12.45H5.27698C4.46134 12.45 3.7981 13.111 3.7981 13.9265V58.5209C3.7981 59.3389 4.45906 59.9998 5.27698 59.9998H54.7206C55.5386 59.9998 56.1995 59.3365 56.1995 58.5209V13.9265C56.1995 13.1109 55.5362 12.45 54.7206 12.45H54.7218ZM30 2.4912C36.1128 2.4912 41.3226 6.63732 43.308 12.4476H16.6926C18.6777 6.63744 23.8848 2.4912 30 2.4912Z" fill="#1DB4F3"/>
<path id="48" d="M25.9688 43.5V41.976H21.8408V40.692L25.7528 35.1H27.5888V40.572H28.6808V41.976H27.5888V43.5H25.9688ZM23.5688 40.572H26.0768V36.888L23.5688 40.572ZM32.8975 43.644C32.3295 43.644 31.8095 43.54 31.3375 43.332C30.8735 43.124 30.5055 42.832 30.2335 42.456C29.9615 42.08 29.8255 41.644 29.8255 41.148C29.8255 40.804 29.8815 40.492 29.9935 40.212C30.1135 39.932 30.2775 39.684 30.4855 39.468C30.6935 39.252 30.9415 39.088 31.2295 38.976C30.8695 38.808 30.5775 38.568 30.3535 38.256C30.1375 37.944 30.0295 37.592 30.0295 37.2C30.0295 36.808 30.1375 36.44 30.3535 36.096C30.5695 35.752 30.8895 35.476 31.3135 35.268C31.7375 35.06 32.2655 34.956 32.8975 34.956C33.5295 34.956 34.0575 35.06 34.4815 35.268C34.9055 35.476 35.2255 35.752 35.4415 36.096C35.6575 36.44 35.7655 36.808 35.7655 37.2C35.7655 37.584 35.6535 37.936 35.4295 38.256C35.2135 38.568 34.9255 38.808 34.5655 38.976C34.8535 39.096 35.1015 39.264 35.3095 39.48C35.5255 39.688 35.6895 39.932 35.8015 40.212C35.9215 40.492 35.9815 40.804 35.9815 41.148C35.9815 41.644 35.8415 42.08 35.5615 42.456C35.2895 42.832 34.9215 43.124 34.4575 43.332C33.9935 43.54 33.4735 43.644 32.8975 43.644ZM32.8975 42.288C33.3935 42.288 33.7655 42.168 34.0135 41.928C34.2615 41.688 34.3855 41.384 34.3855 41.016C34.3855 40.608 34.2535 40.288 33.9895 40.056C33.7335 39.816 33.3695 39.696 32.8975 39.696C32.4335 39.696 32.0655 39.816 31.7935 40.056C31.5295 40.288 31.3975 40.608 31.3975 41.016C31.3975 41.384 31.5255 41.688 31.7815 41.928C32.0375 42.168 32.4095 42.288 32.8975 42.288ZM32.8975 38.508C33.3055 38.508 33.6175 38.404 33.8335 38.196C34.0575 37.988 34.1695 37.72 34.1695 37.392C34.1695 37.04 34.0575 36.768 33.8335 36.576C33.6175 36.376 33.3055 36.276 32.8975 36.276C32.4975 36.276 32.1855 36.376 31.9615 36.576C31.7375 36.768 31.6255 37.044 31.6255 37.404C31.6255 37.724 31.7375 37.988 31.9615 38.196C32.1855 38.404 32.4975 38.508 32.8975 38.508Z" fill="black"/>
</g>
</svg>
