<svg width="88" height="100" viewBox="0 0 88 100" fill="none" xmlns="http://www.w3.org/2000/svg">
<path d="M84.6064 21.3652H69.8894C66.4788 9.52371 56.1814 0.91658 44.001 0.91658C31.8205 0.91658 21.5204 9.5241 18.1126 21.3652H3.39555C2.05589 21.3652 0.966553 22.4508 0.966553 23.7903V97.0346C0.966553 98.3781 2.05215 99.4636 3.39555 99.4636H84.6045C85.948 99.4636 87.0335 98.3742 87.0335 97.0346V23.7903C87.0335 22.4507 85.944 21.3652 84.6045 21.3652H84.6064ZM44.002 5.00827C54.042 5.00827 62.5988 11.8181 65.8598 21.3612H22.1452C25.4057 11.8183 33.958 5.00827 44.002 5.00827Z" fill="#606673"/>
</svg>
